<svg xmlns="http://www.w3.org/2000/svg" xmlns:xlink="http://www.w3.org/1999/xlink" viewBox="0 0 1122 1122"><defs><style>.cls-1{fill:url(#linear-gradient);}.cls-2,.cls-5{fill:#fff;}.cls-2{opacity:0.1;}.cls-3{fill:#898987;}.cls-4{fill:#b7b7b4;}.cls-5{opacity:0.7;}.cls-6{fill:#645e5f;}.cls-7{fill:#837c7e;}</style><linearGradient id="linear-gradient" x1="18" y1="18" x2="1114.26" y2="1114.26" gradientUnits="userSpaceOnUse"><stop offset="0" stop-color="#ffe98a"/><stop offset="0.99" stop-color="#2e3192"/></linearGradient></defs><g id="Background"><rect class="cls-1" width="1122" height="1122"/></g><g id="Object"><path class="cls-2" d="M961.9,356.39a449.5,449.5,0,0,0-38.38-62C841.6,183.2,709.75,111,561,111c-248.53,0-450,201.47-450,450a449.32,449.32,0,0,0,22.44,140.61,444.65,444.65,0,0,0,18.72,47.51C223.39,903.69,379.64,1011,561,1011c248.53,0,450-201.47,450-450A448.14,448.14,0,0,0,961.9,356.39Z"/><path class="cls-3" d="M923,374.81a409.61,409.61,0,0,0-34.91-56.39q-10-13.62-21.16-26.35c2.08,3.76,4.15,7.53,6.11,11.36a407.71,407.71,0,0,1,44.69,186.19c0,226.16-183.34,409.5-409.5,409.5-123.24,0-233.71-54.46-308.77-140.6,69.72,126.36,204.2,212,358.73,212,226.16,0,409.5-183.34,409.5-409.5A407.71,407.71,0,0,0,923,374.81Z"/><path class="cls-4" d="M508.19,899.12c226.16,0,409.5-183.34,409.5-409.5A407.71,407.71,0,0,0,873,303.43c-2-3.83-4-7.6-6.11-11.36C791.82,206,681.36,151.5,558.15,151.5,332,151.5,148.65,334.84,148.65,561A407.09,407.09,0,0,0,186.1,732.19q6.19,13.42,13.32,26.33C274.48,844.66,385,899.12,508.19,899.12Z"/><path class="cls-5" d="M333.58,271.57,374,243c30-21.25,63.79-43.52,100.33-39.31,16.05,1.85,33.29,11.31,36,27.24,1.58,9.24-2.1,18.55-6.63,26.75A124.36,124.36,0,0,1,437.43,314c-9.34,3.33-19.11,5.55-28.1,9.74-11.34,5.29-21,13.51-31.16,20.82-22.48,16.17-82.48,56.05-103.74,19.71S309.43,288.65,333.58,271.57Z"/><path class="cls-6" d="M490,764.26a89.74,89.74,0,0,1,78.28-89,91,91,0,0,0-11.51-.82,89.79,89.79,0,1,0,11.51,178.75A89.73,89.73,0,0,1,490,764.26Z"/><ellipse class="cls-7" cx="568.31" cy="764.26" rx="78.28" ry="88.97"/><path class="cls-6" d="M608.92,270.25a50.62,50.62,0,0,1,44.16-50.18,49.69,49.69,0,0,0-6.49-.46,50.65,50.65,0,1,0,0,101.29,51.5,51.5,0,0,0,6.49-.46A50.63,50.63,0,0,1,608.92,270.25Z"/><ellipse class="cls-7" cx="653.08" cy="270.25" rx="44.15" ry="50.18"/><path class="cls-6" d="M722.36,379.05a32.62,32.62,0,0,1,28.45-32.33,33.84,33.84,0,0,0-4.18-.3,32.63,32.63,0,1,0,0,65.25,33.85,33.85,0,0,0,4.18-.29A32.62,32.62,0,0,1,722.36,379.05Z"/><ellipse class="cls-7" cx="750.81" cy="379.05" rx="28.44" ry="32.33"/><path class="cls-6" d="M248,689.87c-10.07-28.84-.34-58.88,21.72-70.59a42.6,42.6,0,0,0-6.26,1.6c-26.18,9.14-38.54,41.93-27.61,73.23s41,49.27,67.2,40.13A42.78,42.78,0,0,0,309,731.6C284.4,736.16,258.08,718.7,248,689.87Z"/><ellipse class="cls-7" cx="289.34" cy="675.44" rx="43.77" ry="59.49" transform="translate(-206.5 133.15) rotate(-19.25)"/><path class="cls-6" d="M286.8,572a15.88,15.88,0,0,1,8.25-19.35,14.76,14.76,0,0,0-2,.55c-8.47,2.95-13,12-10.16,20.17a16,16,0,0,0,20.52,9.47,17.15,17.15,0,0,0,1.91-.82A15.89,15.89,0,0,1,286.8,572Z"/><path class="cls-7" d="M313.55,562.67a15.89,15.89,0,0,0-18.5-10A15.62,15.62,0,0,0,305.3,582,15.89,15.89,0,0,0,313.55,562.67Z"/><path class="cls-6" d="M702.79,741.7a25.4,25.4,0,0,1,15.82-29.58,25.94,25.94,0,0,0-3.22.51A25.42,25.42,0,1,0,727,762.13a24.58,24.58,0,0,0,3.12-1A25.41,25.41,0,0,1,702.79,741.7Z"/><ellipse class="cls-7" cx="724.37" cy="736.64" rx="22.16" ry="25.19" transform="translate(-149.19 185.06) rotate(-13.21)"/><path class="cls-6" d="M601.31,413.46a10.51,10.51,0,0,1,6.54-12.24,10.51,10.51,0,1,0,3.48,20.68,9.63,9.63,0,0,0,1.29-.4A10.51,10.51,0,0,1,601.31,413.46Z"/><path class="cls-7" d="M619.16,409.27a9.24,9.24,0,1,0-6.54,12.23A10.5,10.5,0,0,0,619.16,409.27Z"/><path class="cls-6" d="M525.57,268.11a10.51,10.51,0,0,1,11.34-8,10.23,10.23,0,0,0-1.29-.41A10.52,10.52,0,1,0,532,280.38,10.5,10.5,0,0,1,525.57,268.11Z"/><path class="cls-7" d="M543.39,272.39a9.24,9.24,0,1,0-11.35,8A10.51,10.51,0,0,0,543.39,272.39Z"/><path class="cls-6" d="M769.8,278.56a10.51,10.51,0,0,1,11.34-8,10.51,10.51,0,1,0-6.2,20,10.39,10.39,0,0,0,1.34.22A10.51,10.51,0,0,1,769.8,278.56Z"/><path class="cls-7" d="M787.62,282.84a9.24,9.24,0,1,0-11.34,8A10.51,10.51,0,0,0,787.62,282.84Z"/><path class="cls-6" d="M372.07,802.06a10.5,10.5,0,0,1,6.54-12.24,10.24,10.24,0,0,0-1.33.22,10.51,10.51,0,1,0,4.8,20.47,10.77,10.77,0,0,0,1.29-.41A10.49,10.49,0,0,1,372.07,802.06Z"/><path class="cls-7" d="M389.91,797.87a9.24,9.24,0,1,0-6.54,12.23A10.5,10.5,0,0,0,389.91,797.87Z"/></g></svg>